<svg xmlns="http://www.w3.org/2000/svg" viewBox="0 0 500 500"><g id="freepik--background-simple--inject-2"><path d="M147,263.74c33.37,37.54,71.13-10,107.91,14.51,22.23,14.82,24.58,31.93,52.75,36.17,19.61,2.95,39.61-3.17,60.72.89,36.08,6.95,79.68,5.08,83.62-42.16,1.64-19.71-4.53-45.15-29.31-62.67-21.09-14.91-43.5-1.8-64.91-12.35-40.92-20.17-24.3-84.7-79.53-91-48.52-5.49-58.85,49.35-108.49,42.55-37.2-5.1-100.38-25.61-110,35.16-4.09,25.91,13.45,41.67,33.72,49.7C121.44,245.66,125.07,239.1,147,263.74Z" style="fill:#005689"></path><path d="M147,263.74c33.37,37.54,71.13-10,107.91,14.51,22.23,14.82,24.58,31.93,52.75,36.17,19.61,2.95,39.61-3.17,60.72.89,36.08,6.95,79.68,5.08,83.62-42.16,1.64-19.71-4.53-45.15-29.31-62.67-21.09-14.91-43.5-1.8-64.91-12.35-40.92-20.17-24.3-84.7-79.53-91-48.52-5.49-58.85,49.35-108.49,42.55-37.2-5.1-100.38-25.61-110,35.16-4.09,25.91,13.45,41.67,33.72,49.7C121.44,245.66,125.07,239.1,147,263.74Z" style="fill:#fff;opacity:0.9"></path></g><g id="freepik--Shadow--inject-2"><ellipse id="freepik--path--inject-2" cx="250" cy="416.24" rx="193.89" ry="11.32" style="fill:#f5f5f5"></ellipse></g><g id="freepik--Pyramid--inject-2"><polygon points="95 413.72 405 413.72 374 360.03 126 360.03 95 413.72" style="fill:#005689"></polygon><polygon points="95 413.72 405 413.72 374 360.03 126 360.03 95 413.72" style="fill:#fff;opacity:0.4"></polygon><polygon points="126 360.03 374 360.03 343 306.33 157 306.33 126 360.03" style="fill:#005689"></polygon><polygon points="126 360.03 374 360.03 343 306.33 157 306.33 126 360.03" style="fill:#fff;opacity:0.30000000000000004"></polygon><polygon points="188 252.64 157 306.33 343 306.33 312 252.64 188 252.64" style="fill:#005689"></polygon><polygon points="188 252.64 157 306.33 343 306.33 312 252.64 188 252.64" style="fill:#fff;opacity:0.2"></polygon><polygon points="281 198.95 219 198.95 188 252.64 312 252.64 281 198.95" style="fill:#005689"></polygon><polygon points="281 198.95 219 198.95 188 252.64 312 252.64 281 198.95" style="opacity:0.1"></polygon></g><g id="freepik--character-1--inject-2"><path d="M374,212.35c2.11,3.89,4.06,7.78,5.93,11.76s3.62,8,5.25,12.15l.6,1.56.3.79.17.46.25.79a11.66,11.66,0,0,1,.18,5.27,24.75,24.75,0,0,1-2.67,7.34,46.43,46.43,0,0,1-3.74,5.92,52,52,0,0,1-4.41,5.27l-4.48-3.21a102.79,102.79,0,0,0,4.71-11.39,19.66,19.66,0,0,0,1.05-5.08c0-.66-.11-1.19-.19-1.17h0l-.13-.28-.35-.71-.69-1.42c-1.88-3.8-3.83-7.61-5.79-11.42l-5.83-11.45Z" style="fill:#ff8b7b"></path><path d="M372.2,259.48,368,261.8l6.31,5.4s2.62-2.59,2.17-5.71Z" style="fill:#ff8b7b"></path><polygon points="363.95 265.89 369.38 270.1 374.29 267.19 367.98 261.8 363.95 265.89" style="fill:#ff8b7b"></polygon><path d="M341.51,184.44c-.09.52-.43.9-.76.84s-.55-.51-.47-1,.42-.9.76-.84S341.59,183.92,341.51,184.44Z" style="fill:#263238"></path><path d="M341.13,185.34a18.54,18.54,0,0,1-3.17,4,3,3,0,0,0,2.41.85Z" style="fill:#ff5652"></path><path d="M343.84,181.86a.31.31,0,0,1-.22-.09,2.44,2.44,0,0,0-2.1-.73.31.31,0,0,1-.36-.24.3.3,0,0,1,.23-.36,3,3,0,0,1,2.67.9.3.3,0,0,1,0,.43A.31.31,0,0,1,343.84,181.86Z" style="fill:#263238"></path><path d="M358.79,190.15c-.93,4.76-1.86,13.47,1.47,16.64,0,0-1.3,4.83-10.14,4.83-9.72,0-4.64-4.83-4.64-4.83,5.3-1.26,5.16-5.2,4.24-8.89Z" style="fill:#ff8b7b"></path><path d="M365.51,211.62a3,3,0,0,1-.28-.85c-.86-4.63-4.48-8.27-9.17-8.45-5-.18-10.53.66-13.84,4.55-1.45,1.7.16,4.19.16,4.19Z" style="fill:#005689"></path><path d="M380.91,405.69l-.06,0a.62.62,0,0,1-.3-.67.7.7,0,0,1,.29-.53c.77-.59,2.91-.23,3-.21a.18.18,0,0,1,.13.11.16.16,0,0,1-.06.16C383.39,404.93,381.67,406,380.91,405.69Zm2.51-1.19a4.13,4.13,0,0,0-2.39.21.4.4,0,0,0-.18.31c0,.28.1.35.14.37C381.4,405.61,382.61,405.05,383.42,404.5Z" style="fill:#005689"></path><path d="M382.73,404.27c-.74-.29-1.53-.77-1.64-1.23a.5.5,0,0,1,.28-.57.83.83,0,0,1,.67-.1c.94.24,1.87,1.89,1.91,2a.14.14,0,0,1,0,.15.17.17,0,0,1-.14.08A4.18,4.18,0,0,1,382.73,404.27Zm-.66-1.57-.1,0a.55.55,0,0,0-.44.06c-.17.1-.15.19-.14.23.1.43,1.3,1.06,2.12,1.24A4.13,4.13,0,0,0,382.07,402.7Z" style="fill:#005689"></path><path d="M331.72,409.93c-.83,0-1.64-.11-1.91-.49a.59.59,0,0,1,0-.67.77.77,0,0,1,.49-.36c1.08-.29,3.36,1,3.45,1.06a.14.14,0,0,1,.08.15.15.15,0,0,1-.13.13A11.58,11.58,0,0,1,331.72,409.93Zm-1-1.26a1,1,0,0,0-.3,0,.49.49,0,0,0-.3.21c-.11.19-.07.29,0,.34.3.42,1.95.43,3.16.26A7,7,0,0,0,330.69,408.67Z" style="fill:#005689"></path><path d="M333.68,409.75h-.06c-.78-.35-2.34-1.76-2.22-2.49,0-.18.15-.39.57-.43a1.12,1.12,0,0,1,.86.26,4.4,4.4,0,0,1,1,2.51.15.15,0,0,1-.07.13A.12.12,0,0,1,333.68,409.75Zm-1.58-2.63H332c-.28,0-.3.14-.3.18-.08.44,1,1.54,1.78,2a3.52,3.52,0,0,0-.86-2A.78.78,0,0,0,332.1,407.12Z" style="fill:#005689"></path><polygon points="340.83 409.6 334.33 409.6 333.69 394.54 340.19 394.54 340.83 409.6" style="fill:#ff8b7b"></polygon><polygon points="390.91 402.82 384.82 404.21 377.71 389.78 383.8 388.38 390.91 402.82" style="fill:#ff8b7b"></polygon><path d="M383.94,403.52l6.64-3a.57.57,0,0,1,.69.17l3.58,4.72a1,1,0,0,1-.39,1.45c-2.33,1-3.52,1.4-6.44,2.74-1.79.82-8.14,5.3-10.81,5.87s-3.58-2-2.54-2.46a18.66,18.66,0,0,0,8.48-8.64A1.58,1.58,0,0,1,383.94,403.52Z" style="fill:#263238"></path><path d="M334.38,408.85h7.1a.57.57,0,0,1,.55.44l1.28,5.78a.94.94,0,0,1-.93,1.16c-2.56-.05-6.26-.2-9.48-.2-3.77,0-7,.21-11.43.21-2.67,0-3.41-2.7-2.29-2.94,5.08-1.12,9.23-1.24,13.63-3.95A3,3,0,0,1,334.38,408.85Z" style="fill:#263238"></path><path d="M362.31,219.3c.68,1.75,1.42,3.45,2.18,5,1.29,2.76,2.58,5.17,3.52,6.84.84,1.5,1.39,2.39,1.39,2.39l14.2-7s-5.72-16.45-11.7-18.28S359.24,211.46,362.31,219.3Z" style="fill:#263238"></path><path d="M368.6,220.93c-1.23.91-2.12,3.36-2.75,6.23.81,1.58,1.56,3,2.16,4,.84,1.5,1.38,2.39,1.38,2.39l1.63-.81A31.37,31.37,0,0,0,368.6,220.93Z" style="opacity:0.2"></path><path d="M332.28,229.79c0,2.21.05,4.65.18,7.33.32,7.29,1.11,16.38,2.64,27.67h34.77c.24-5.33-3.12-31.38,2-56.53a92,92,0,0,0-11.64-1.47,130,130,0,0,0-14.78,0,66.29,66.29,0,0,0-10,1.81S332.27,212.22,332.28,229.79Z" style="fill:#263238"></path><path d="M333.3,225.1c-.32.7-.66,1.41-1,2.17,0,.81,0,1.65,0,2.52,0,.35,0,.71,0,1.07,4.32-2.63,7.15-8.15,7.15-8.15Z" style="opacity:0.2"></path><path d="M342.74,220.37l-1,.62-.88.51c-.59.35-1.14.6-1.7.91-1.12.55-2.22,1.07-3.33,1.57-2.21,1-4.47,1.84-6.74,2.64a62.2,62.2,0,0,1-14.5,3.26c-.67,0-1.29.13-2,.12h-1.79l-.37,0a15.19,15.19,0,0,1-4.74-1.14,35.37,35.37,0,0,1-6.77-3.76,67.41,67.41,0,0,1-10.8-9.37l3.48-4.28c3.86,2.14,7.8,4.38,11.65,6.16a34.76,34.76,0,0,0,5.55,2.12,6.3,6.3,0,0,0,1.92.25l1.26-.12c.44,0,.94-.14,1.41-.2a64,64,0,0,0,11.93-3.47c2-.75,4-1.59,5.94-2.44,1-.44,1.93-.88,2.85-1.34l1.32-.69.61-.32.48-.28Z" style="fill:#ff8b7b"></path><path d="M292.81,212.8l-4.06-5.24-4.12,6.93s3.79,2.82,6.82,2.31Z" style="fill:#ff8b7b"></path><polygon points="282.68 205.43 280.52 211.15 284.63 214.49 288.75 207.56 282.68 205.43" style="fill:#ff8b7b"></polygon><path d="M348.61,218.92c-3.37,5.22-21.7,10.93-21.7,10.93l-7.06-14.52a72.6,72.6,0,0,1,15.56-6.8C347.11,205.33,352.66,212.65,348.61,218.92Z" style="fill:#263238"></path><polygon points="333.69 394.55 334.02 402.31 340.52 402.31 340.19 394.55 333.69 394.55" style="opacity:0.2"></polygon><polygon points="383.8 388.39 377.71 389.79 381.38 397.23 387.47 395.83 383.8 388.39" style="opacity:0.2"></polygon><path d="M359,186.05c-1.39,6.3-1.88,10.06-5.61,12.82-5.6,4.16-13,0-13.52-6.57-.47-5.94,1.88-15.24,8.5-16.8A8.8,8.8,0,0,1,359,186.05Z" style="fill:#ff8b7b"></path><path d="M364.79,170.61c5.53.15,7.54,9.34,5.89,12.08,0,0-1.77,1-3.92,4.37-3.26,5.14-7.42,10.7-12.3,10.37-6.06-.42-7-7.42-6.79-13.93-3.2-3-4.95-3.24-6.52-7.59C336.3,162.5,345.62,155.78,364.79,170.61Z" style="fill:#263238"></path><path d="M350.28,185.44a7.44,7.44,0,0,1-2,4.34c-1.51,1.55-3,.51-3.18-1.45-.17-1.76.41-4.68,2.21-5.5S350.46,183.47,350.28,185.44Z" style="fill:#ff8b7b"></path><path d="M347.43,264.79s-.75,46.27,5.06,64.41c9.21,28.73,25,67.38,25,67.38l11.88-3s-13.09-39.18-17.34-63.38c-3.82-21.74-2.2-47.62-2.2-65.38Z" style="fill:#005689"></path><path d="M353.92,272.74c1.23,8.34-3.12,31.55-4.62,39.15-1.58-14.21-1.87-31.07-1.89-40.27C350.59,269.46,353.35,268.9,353.92,272.74Z" style="opacity:0.2"></path><path d="M374.35,393.08c-.05,0,2.91,3.76,2.91,3.76l13-3.31-1.44-4.41Z" style="fill:#005689"></path><path d="M374.35,393.08c-.05,0,2.91,3.76,2.91,3.76l13-3.31-1.44-4.41Z" style="fill:#fff;opacity:0.2"></path><path d="M335.09,264.79s-9.79,41.51-10.48,61.34c-.77,22.23,7,74.68,7,74.68h11S344,348,344.46,327.7C345,305.62,358,264.79,358,264.79Z" style="fill:#005689"></path><path d="M329.48,396.42c-.05,0,.62,4.57.62,4.57h13.4l.36-4.08Z" style="fill:#005689"></path><path d="M329.48,396.42c-.05,0,.62,4.57.62,4.57h13.4l.36-4.08Z" style="fill:#fff;opacity:0.2"></path></g></svg>